<svg width="20" height="14" viewBox="0 0 20 14" fill="none" xmlns="http://www.w3.org/2000/svg">
<path d="M0 3C0 3.79565 0.316071 4.55871 0.87868 5.12132C1.44129 5.68393 2.20435 6 3 6L17 6C17.7956 6 18.5587 5.68393 19.1213 5.12132C19.6839 4.55871 20 3.79565 20 3C20 2.20435 19.6839 1.44129 19.1213 0.878679C18.5587 0.31607 17.7956 0 17 0L3 0C2.20435 0 1.44129 0.31607 0.87868 0.878679C0.316071 1.44129 0 2.20435 0 3ZM17 2C17.2652 2 17.5196 2.10536 17.7071 2.29289C17.8946 2.48043 18 2.73478 18 3C18 3.26522 17.8946 3.51957 17.7071 3.70711C17.5196 3.89464 17.2652 4 17 4L3 4C2.73478 4 2.48043 3.89464 2.29289 3.70711C2.10536 3.51957 2 3.26522 2 3C2 2.73478 2.10536 2.48043 2.29289 2.29289C2.48043 2.10536 2.73478 2 3 2L17 2ZM0 11C0 11.7956 0.316071 12.5587 0.87868 13.1213C1.44129 13.6839 2.20435 14 3 14L17 14C17.7956 14 18.5587 13.6839 19.1213 13.1213C19.6839 12.5587 20 11.7956 20 11C20 10.2044 19.6839 9.44129 19.1213 8.87868C18.5587 8.31607 17.7956 8 17 8H3C2.20435 8 1.44129 8.31607 0.87868 8.87868C0.316071 9.44129 0 10.2044 0 11ZM17 10C17.2652 10 17.5196 10.1054 17.7071 10.2929C17.8946 10.4804 18 10.7348 18 11C18 11.2652 17.8946 11.5196 17.7071 11.7071C17.5196 11.8946 17.2652 12 17 12L3 12C2.73478 12 2.48043 11.8946 2.29289 11.7071C2.10536 11.5196 2 11.2652 2 11C2 10.7348 2.10536 10.4804 2.29289 10.2929C2.48043 10.1054 2.73478 10 3 10H17Z" fill="white"/>
</svg>
