<svg width="20" height="20" viewBox="0 0 20 20" fill="none" xmlns="http://www.w3.org/2000/svg">
<path d="M16.2488 3.03331H4.25759L5.8831 1.73076C6.11855 1.54063 6.25083 1.28275 6.25083 1.01386C6.25083 0.744965 6.11855 0.487087 5.8831 0.296952C5.64765 0.106817 5.3283 2.0034e-09 4.99532 0C4.66234 -2.0034e-09 4.343 0.106817 4.10755 0.296952L0.356378 3.32613C0.242542 3.42216 0.153308 3.53539 0.0937961 3.65934C-0.0312654 3.90517 -0.0312654 4.1809 0.0937961 4.42673C0.153308 4.55067 0.242542 4.66391 0.356378 4.75994L4.10755 7.78911C4.22379 7.88375 4.36208 7.95887 4.51445 8.01013C4.66682 8.0614 4.83026 8.08779 4.99532 8.08779C5.16039 8.08779 5.32382 8.0614 5.47619 8.01013C5.62857 7.95887 5.76686 7.88375 5.8831 7.78911C6.0003 7.69525 6.09332 7.58357 6.1568 7.46053C6.22028 7.33748 6.25296 7.20551 6.25296 7.07221C6.25296 6.93891 6.22028 6.80694 6.1568 6.68389C6.09332 6.56085 6.0003 6.44917 5.8831 6.3553L4.25759 5.05276H16.2488C16.5805 5.05276 16.8985 5.15914 17.133 5.3485C17.3675 5.53786 17.4992 5.79469 17.4992 6.06248V10.1014C17.4992 10.3692 17.631 10.626 17.8655 10.8154C18.0999 11.0047 18.418 11.1111 18.7496 11.1111C19.0812 11.1111 19.3993 11.0047 19.6338 10.8154C19.8683 10.626 20 10.3692 20 10.1014V6.06248C20 5.2591 19.6048 4.48861 18.9013 3.92053C18.1978 3.35245 17.2437 3.03331 16.2488 3.03331V3.03331Z" fill="white"/>
<path d="M3.75117 16.9667H15.7424L14.1169 18.2692C13.8814 18.4594 13.7492 18.7173 13.7492 18.9861C13.7492 19.255 13.8814 19.5129 14.1169 19.703C14.3524 19.8932 14.6717 20 15.0047 20C15.3377 20 15.657 19.8932 15.8925 19.703L19.6436 16.6739C19.7575 16.5778 19.8467 16.4646 19.9062 16.3407C20.0313 16.0948 20.0313 15.8191 19.9062 15.5733C19.8467 15.4493 19.7575 15.3361 19.6436 15.2401L15.8925 12.2109C15.7762 12.1162 15.6379 12.0411 15.4855 11.9899C15.3332 11.9386 15.1697 11.9122 15.0047 11.9122C14.8396 11.9122 14.6762 11.9386 14.5238 11.9899C14.3714 12.0411 14.2331 12.1162 14.1169 12.2109C13.9997 12.3048 13.9067 12.4164 13.8432 12.5395C13.7797 12.6625 13.747 12.7945 13.747 12.9278C13.747 13.0611 13.7797 13.1931 13.8432 13.3161C13.9067 13.4392 13.9997 13.5508 14.1169 13.6447L15.7424 14.9472H3.75117C3.41955 14.9472 3.1015 14.8409 2.86701 14.6515C2.63252 14.4621 2.50078 14.2053 2.50078 13.9375V9.89861C2.50078 9.63082 2.36904 9.37399 2.13455 9.18463C1.90006 8.99527 1.58201 8.88889 1.25039 8.88889C0.918766 8.88889 0.600724 8.99527 0.36623 9.18463C0.131736 9.37399 2.74387e-07 9.63082 2.74387e-07 9.89861V13.9375C2.74387e-07 14.7409 0.395211 15.5114 1.09869 16.0795C1.80217 16.6475 2.7563 16.9667 3.75117 16.9667V16.9667Z" fill="white"/>
</svg>
